<svg width="12" height="14" viewBox="0 0 12 14" fill="none" xmlns="http://www.w3.org/2000/svg">
<path d="M11.22 11.06V14H0.52L3.9 10.46C5.1 9.2 6 8.1 6.64 7.08C7 6.52 7.36 5.86 7.36 5C7.36 4.86 7.36 4.16 6.96 3.72C6.76 3.5 6.42 3.32 5.98 3.32C5.42 3.32 5.04 3.58 4.82 3.86C4.5 4.28 4.36 5.04 4.34 5.5H0.76C0.78 3.76 1.54 2.5 2.24 1.8C3.14 0.899999 4.36 0.359999 6.02 0.359999C8.02 0.359999 9.18 1.14 9.78 1.74C10.32 2.28 11.08 3.3 11.08 5.02C11.08 6.7 10.3 7.86 9.1 8.98L6.86 11.06H11.22Z" fill="#C3B9B5"/>
</svg>
