<svg width="12" height="15" viewBox="0 0 12 15" fill="none" xmlns="http://www.w3.org/2000/svg">
<path d="M0.56 9.44H4.1C4.12 9.94 4.32 10.46 4.64 10.78C4.94 11.1 5.42 11.3 6 11.3C6.68 11.3 7.1 11 7.36 10.72C7.66 10.38 7.76 10.02 7.76 9.62C7.76 9.04 7.48 8.64 7.24 8.44C6.9 8.16 6.38 8.06 5.96 8.06C5.74 8.06 5.56 8.08 5.38 8.14V5.8C6.08 5.9 6.52 5.7 6.8 5.46C7.12 5.18 7.24 4.82 7.24 4.52C7.24 4.16 7.08 3.76 6.88 3.56C6.66 3.34 6.28 3.2 5.9 3.2C5.48 3.2 5.14 3.34 4.94 3.54C4.64 3.82 4.48 4.3 4.48 4.72H1.26C1.34 3.32 1.96 2.26 2.56 1.66C3.54 0.639999 4.8 0.359999 6.08 0.359999C7.08 0.359999 8.4 0.559999 9.4 1.54C10.06 2.2 10.48 3.1 10.48 4.12C10.48 4.7 10.38 5.22 10.08 5.76C9.84 6.2 9.54 6.54 9.06 6.78C9.88 7.08 10.36 7.6 10.64 8C11.02 8.56 11.2 9.2 11.2 9.96C11.2 11.38 10.58 12.32 10.02 12.88C9.3 13.6 8.02 14.3 6.04 14.3C4.76 14.3 3.38 14 2.22 12.92C1.54 12.3 0.72 11.16 0.56 9.44Z" fill="#C3B9B5"/>
</svg>
