<svg width="11" height="15" viewBox="0 0 11 15" fill="none" xmlns="http://www.w3.org/2000/svg">
<path d="M9.9 0.659999V3.6H5.28L5.04 5.08C5.54 5 5.94 4.98 6.12 4.98C7.9 4.98 9.02 5.66 9.64 6.3C10.24 6.9 10.86 7.92 10.86 9.46C10.86 11.06 10.22 12.14 9.58 12.8C8.34 14.08 6.7 14.3 5.42 14.3C3.4 14.3 2 13.78 0.92 13.1L1.44 9.86C2.14 10.5 2.82 10.84 3.04 10.94C3.64 11.22 4.38 11.4 5.04 11.4C5.74 11.4 6.38 11.16 6.78 10.74C7.08 10.42 7.3 9.94 7.3 9.38C7.3 8.68 6.96 8.2 6.66 7.94C5.94 7.3 4.7 7.28 4.26 7.28C3.32 7.28 2.52 7.48 1.8 7.84L2.96 0.659999H9.9Z" fill="#C3B9B5"/>
</svg>
