<svg width="12" height="15" viewBox="0 0 12 15" fill="none" xmlns="http://www.w3.org/2000/svg">
<path d="M5.34 0.659999H9.28L5.48 5.2C6.02 4.96 6.68 4.78 7.34 4.78C8.34 4.78 9.48 5.18 10.36 6.06C11.3 7 11.62 8.1 11.62 9.24C11.62 10.48 11.28 11.68 10.24 12.72C8.92 14.04 7.26 14.3 5.98 14.3C3.68 14.3 2.34 13.44 1.6 12.68C0.96 12.02 0.38 11 0.38 9.56C0.38 7.74 1.3 5.98 2.36 4.58L5.34 0.659999ZM5.92 11.56C6.66 11.56 7.16 11.24 7.46 10.94C7.84 10.56 8.08 10.02 8.08 9.42C8.08 9 7.94 8.48 7.46 8.02C6.92 7.5 6.32 7.4 5.92 7.4C5.4 7.4 4.82 7.62 4.42 7.98C4 8.36 3.76 8.9 3.76 9.36C3.76 9.92 3.96 10.48 4.34 10.88C4.86 11.42 5.48 11.56 5.92 11.56Z" fill="#C3B9B5"/>
</svg>
