<svg width="171" height="46" viewBox="0 0 171 46" fill="none" xmlns="http://www.w3.org/2000/svg">
<path d="M58.96 30H53.4V16.66H58.56C59.52 16.66 60.66 16.8 61.48 17.7C61.94 18.2 62.3 19.02 62.3 20.2C62.3 20.78 62.2 21.28 61.92 21.84C61.64 22.36 61.34 22.66 60.84 22.88C61.54 22.96 62.24 23.28 62.66 23.68C63.2 24.2 63.56 25.06 63.56 26.12C63.56 27.38 63.08 28.24 62.58 28.74C61.86 29.48 60.6 30 58.96 30ZM56.86 19.32V21.92H57.5C57.86 21.92 58.46 21.88 58.82 21.5C59.04 21.28 59.14 20.92 59.14 20.62C59.14 20.28 59.02 19.94 58.82 19.72C58.6 19.5 58.18 19.32 57.5 19.32H56.86ZM56.86 24.5V27.3H57.64C58.6 27.3 59.4 27.2 59.78 26.76C59.94 26.58 60.06 26.28 60.06 25.9C60.06 25.48 59.92 25.14 59.72 24.94C59.3 24.52 58.44 24.5 57.58 24.5H56.86ZM79.8833 23.34C79.8833 25.1 79.2033 26.96 77.7833 28.32C76.4233 29.62 74.5033 30.3 72.5233 30.3C70.5433 30.3 68.6233 29.62 67.2633 28.32C65.8433 26.96 65.1633 25.1 65.1633 23.34C65.1633 21.56 65.8433 19.68 67.2633 18.34C68.6233 17.04 70.5433 16.36 72.5233 16.36C74.5033 16.36 76.4233 17.04 77.7833 18.34C79.2033 19.68 79.8833 21.56 79.8833 23.34ZM72.5233 19.72C71.5633 19.72 70.5433 20.06 69.8233 20.78C69.1033 21.48 68.7633 22.46 68.7633 23.4C68.7633 24.58 69.3233 25.4 69.8233 25.88C70.4633 26.5 71.3633 26.94 72.5233 26.94C73.7033 26.94 74.5833 26.52 75.2033 25.9C75.8233 25.28 76.2833 24.36 76.2833 23.34C76.2833 22.3 75.8233 21.38 75.2033 20.78C74.4633 20.08 73.4433 19.72 72.5233 19.72ZM83.3914 16.66H93.6714V30H90.1914V19.58H86.8314V24.44C86.8314 25.72 86.7314 27.74 85.4314 29.04C84.7314 29.72 83.7314 30.18 82.3114 30.18C81.6114 30.18 80.9914 30.06 80.7314 30V26.8C80.9714 26.88 81.2514 26.94 81.5314 26.94C82.0714 26.94 82.4514 26.76 82.6914 26.54C82.9114 26.34 83.3914 25.78 83.3914 24.02V16.66ZM104.266 16.66V19.6H99.9264V30H96.4664V16.66H104.266ZM119.649 23.34C119.649 25.1 118.969 26.96 117.549 28.32C116.189 29.62 114.269 30.3 112.289 30.3C110.309 30.3 108.389 29.62 107.029 28.32C105.609 26.96 104.929 25.1 104.929 23.34C104.929 21.56 105.609 19.68 107.029 18.34C108.389 17.04 110.309 16.36 112.289 16.36C114.269 16.36 116.189 17.04 117.549 18.34C118.969 19.68 119.649 21.56 119.649 23.34ZM112.289 19.72C111.329 19.72 110.309 20.06 109.589 20.78C108.869 21.48 108.529 22.46 108.529 23.4C108.529 24.58 109.089 25.4 109.589 25.88C110.229 26.5 111.129 26.94 112.289 26.94C113.469 26.94 114.349 26.52 114.969 25.9C115.589 25.28 116.049 24.36 116.049 23.34C116.049 22.3 115.589 21.38 114.969 20.78C114.229 20.08 113.209 19.72 112.289 19.72ZM129.657 16.66V19.6H125.317V30H121.857V16.66H129.657ZM137.36 25.58H135.18V30H131.72V16.66H137.24C138.4 16.66 139.6 16.88 140.62 17.86C141.66 18.86 141.86 19.98 141.86 21.1C141.86 22.16 141.72 23.4 140.68 24.42C139.64 25.44 138.4 25.58 137.36 25.58ZM135.18 19.46V22.78H136.34C136.7 22.78 137.38 22.74 137.8 22.36C138.22 22 138.24 21.46 138.24 21.14C138.24 20.78 138.2 20.3 137.84 19.94C137.44 19.52 136.8 19.46 136.36 19.46H135.18ZM151.657 30L150.837 27.76H145.997L145.097 30H141.437L146.557 16.66H150.337L155.357 30H151.657ZM146.957 25.12H149.917L148.417 20.8L146.957 25.12ZM158.51 16.66H168.59V27.32H170.19V33H167.07V30H158.95V33H155.83V27.32C156.35 27.24 156.85 27.04 157.35 26.52C158.35 25.48 158.51 24.04 158.51 22.14V16.66ZM161.87 19.34V22.48C161.87 23.12 161.83 24.28 161.55 25.28C161.31 26.12 160.95 26.74 160.39 27.32H165.11V19.34H161.87Z" fill="#FFC59E"/>
<path d="M32.5275 15.2258C32.4242 14.8385 32.2143 14.4258 32.0591 14.0645C30.2014 9.59998 26.1424 8 22.8649 8C18.4774 8 13.6452 10.942 13 17.0061V18.2451C13 18.2968 13.0178 18.7612 13.0431 18.9935C13.4048 21.8836 15.6852 24.955 17.3883 27.845C19.2207 30.9414 21.122 33.9873 23.0056 37.032C24.1671 35.0451 25.3245 33.0321 26.4595 31.0966C26.7689 30.5286 27.128 29.961 27.4377 29.4188C27.6441 29.0578 28.0384 28.6969 28.2185 28.361C30.0508 25.0064 33 21.6258 33 18.2967V16.929C33.0001 16.5681 32.5527 15.3036 32.5275 15.2258ZM22.9452 21.4452C21.6555 21.4452 20.2439 20.8003 19.5471 19.0194C19.4433 18.7359 19.4516 18.1678 19.4516 18.1157V17.3157C19.4516 15.0454 21.3794 14.0129 23.0565 14.0129C25.1211 14.0129 26.7179 15.6647 26.7179 17.7294C26.7179 19.7939 25.0099 21.4452 22.9452 21.4452Z" fill="#FFC59E"/>
</svg>
