<svg width="40" height="490" viewBox="0 0 40 490" fill="none" xmlns="http://www.w3.org/2000/svg">
<path d="M25.22 114.06V117H14.52L17.9 113.46C19.1 112.2 20 111.1 20.64 110.08C21 109.52 21.36 108.86 21.36 108C21.36 107.86 21.36 107.16 20.96 106.72C20.76 106.5 20.42 106.32 19.98 106.32C19.42 106.32 19.04 106.58 18.82 106.86C18.5 107.28 18.36 108.04 18.34 108.5H14.76C14.78 106.76 15.54 105.5 16.24 104.8C17.14 103.9 18.36 103.36 20.02 103.36C22.02 103.36 23.18 104.14 23.78 104.74C24.32 105.28 25.08 106.3 25.08 108.02C25.08 109.7 24.3 110.86 23.1 111.98L20.86 114.06H25.22Z" fill="#C3B9B5"/>
<path d="M18.68 27V16.6H16.78V13.66H22.14V27H18.68Z" fill="#080606"/>
<path d="M14.56 202.44H18.1C18.12 202.94 18.32 203.46 18.64 203.78C18.94 204.1 19.42 204.3 20 204.3C20.68 204.3 21.1 204 21.36 203.72C21.66 203.38 21.76 203.02 21.76 202.62C21.76 202.04 21.48 201.64 21.24 201.44C20.9 201.16 20.38 201.06 19.96 201.06C19.74 201.06 19.56 201.08 19.38 201.14V198.8C20.08 198.9 20.52 198.7 20.8 198.46C21.12 198.18 21.24 197.82 21.24 197.52C21.24 197.16 21.08 196.76 20.88 196.56C20.66 196.34 20.28 196.2 19.9 196.2C19.48 196.2 19.14 196.34 18.94 196.54C18.64 196.82 18.48 197.3 18.48 197.72H15.26C15.34 196.32 15.96 195.26 16.56 194.66C17.54 193.64 18.8 193.36 20.08 193.36C21.08 193.36 22.4 193.56 23.4 194.54C24.06 195.2 24.48 196.1 24.48 197.12C24.48 197.7 24.38 198.22 24.08 198.76C23.84 199.2 23.54 199.54 23.06 199.78C23.88 200.08 24.36 200.6 24.64 201C25.02 201.56 25.2 202.2 25.2 202.96C25.2 204.38 24.58 205.32 24.02 205.88C23.3 206.6 22.02 207.3 20.04 207.3C18.76 207.3 17.38 207 16.22 205.92C15.54 205.3 14.72 204.16 14.56 202.44Z" fill="#C3B9B5"/>
<path d="M23.9 373.66V376.6H19.28L19.04 378.08C19.54 378 19.94 377.98 20.12 377.98C21.9 377.98 23.02 378.66 23.64 379.3C24.24 379.9 24.86 380.92 24.86 382.46C24.86 384.06 24.22 385.14 23.58 385.8C22.34 387.08 20.7 387.3 19.42 387.3C17.4 387.3 16 386.78 14.92 386.1L15.44 382.86C16.14 383.5 16.82 383.84 17.04 383.94C17.64 384.22 18.38 384.4 19.04 384.4C19.74 384.4 20.38 384.16 20.78 383.74C21.08 383.42 21.3 382.94 21.3 382.38C21.3 381.68 20.96 381.2 20.66 380.94C19.94 380.3 18.7 380.28 18.26 380.28C17.32 380.28 16.52 380.48 15.8 380.84L16.96 373.66H23.9Z" fill="#C3B9B5"/>
<path d="M23.88 283.66V291.82H25.5V294.48H23.88V297H20.68V294.48H14.22V292.26L19.36 283.66H23.88ZM17.54 291.82H20.68V286.38L17.54 291.82Z" fill="#C3B9B5"/>
<path d="M19.34 463.66H23.28L19.48 468.2C20.02 467.96 20.68 467.78 21.34 467.78C22.34 467.78 23.48 468.18 24.36 469.06C25.3 470 25.62 471.1 25.62 472.24C25.62 473.48 25.28 474.68 24.24 475.72C22.92 477.04 21.26 477.3 19.98 477.3C17.68 477.3 16.34 476.44 15.6 475.68C14.96 475.02 14.38 474 14.38 472.56C14.38 470.74 15.3 468.98 16.36 467.58L19.34 463.66ZM19.92 474.56C20.66 474.56 21.16 474.24 21.46 473.94C21.84 473.56 22.08 473.02 22.08 472.42C22.08 472 21.94 471.48 21.46 471.02C20.92 470.5 20.32 470.4 19.92 470.4C19.4 470.4 18.82 470.62 18.42 470.98C18 471.36 17.76 471.9 17.76 472.36C17.76 472.92 17.96 473.48 18.34 473.88C18.86 474.42 19.48 474.56 19.92 474.56Z" fill="#C3B9B5"/>
<circle cx="20" cy="20" r="19" stroke="#EDE9E8" stroke-width="2"/>
<path d="M39 20C39.5523 20 40.0026 19.5519 39.975 19.0003C39.7614 14.7302 38.1837 10.6307 35.4602 7.31213C32.5248 3.73533 28.44 1.287 23.9018 0.384295C19.3636 -0.518409 14.6528 0.180372 10.5721 2.36157C6.49132 4.54278 3.29313 8.07144 1.52241 12.3463C-0.248307 16.6212 -0.481985 21.3778 0.861193 25.8057C2.20437 30.2336 5.0413 34.0587 8.88859 36.6294C12.7359 39.2001 17.3555 40.3572 21.9603 39.9037C26.2327 39.4829 30.2471 37.6998 33.4176 34.8313C33.8271 34.4608 33.8256 33.8256 33.435 33.435C33.0445 33.0445 32.4131 33.0469 32.0015 33.4151C29.1597 35.9575 25.5761 37.5379 21.7643 37.9133C17.62 38.3215 13.4623 37.2801 9.99973 34.9665C6.53717 32.6528 3.98393 29.2102 2.77507 25.2251C1.56621 21.24 1.77652 16.9591 3.37017 13.1117C4.96381 9.2643 7.84219 6.0885 11.5149 4.12542C15.1875 2.16233 19.4272 1.53343 23.5116 2.34587C27.596 3.1583 31.2723 5.3618 33.9142 8.58092C36.3441 11.5417 37.7606 15.1933 37.9722 19.0004C38.0029 19.5519 38.4477 20 39 20Z" fill="#080606"/>
</svg>
