<svg width="340" height="240" viewBox="0 0 340 240" fill="none" xmlns="http://www.w3.org/2000/svg">
<g filter="url(#filter0_d_302_1803)">
<rect x="8" y="8" width="320" height="220" rx="20" fill="white"/>
</g>
<mask id="mask0_302_1803" style="mask-type:alpha" maskUnits="userSpaceOnUse" x="8" y="8" width="320" height="220">
<rect x="8" y="8" width="320" height="220" rx="20" fill="white"/>
</mask>
<g mask="url(#mask0_302_1803)">
<path d="M303.057 94.9439C301.798 93.6854 299.758 93.6854 298.499 94.9439L283.424 110.019C279.831 108.307 275.393 108.935 272.422 111.906L265.194 119.134C261.601 117.422 257.162 118.05 254.192 121.021C253.006 122.207 224.365 150.848 222.811 152.401C219.079 150.887 215.053 150.092 210.905 150.092C210.902 150.092 210.899 150.092 210.895 150.092C205.565 150.092 201.228 154.429 201.228 159.76C201.228 165.09 205.565 169.427 210.895 169.427C212.082 169.427 213.259 169.605 214.388 169.94L201.78 182.547L199.501 180.268C198.243 179.01 196.202 179.01 194.944 180.268C193.685 181.527 193.685 183.567 194.944 184.826C196.861 186.743 211.2 201.082 213.174 203.056C214.432 204.315 216.473 204.315 217.732 203.056C218.99 201.798 218.99 199.757 217.732 198.499L215.453 196.22L228.06 183.612C228.395 184.741 228.573 185.918 228.573 187.105C228.573 189.687 229.578 192.115 231.404 193.941C233.23 195.766 235.657 196.772 238.24 196.772C243.571 196.772 247.907 192.435 247.907 187.105C247.908 182.954 247.114 178.924 245.598 175.189C247.227 173.56 275.395 145.391 276.979 143.808C279.966 140.822 280.583 136.381 278.87 132.802L286.094 125.578C289.081 122.592 289.698 118.151 287.985 114.572L303.056 99.501C304.315 98.2431 304.315 96.2025 303.057 94.9439ZM210.896 191.662L206.338 187.105L220.011 173.432L224.569 177.99L210.896 191.662ZM238.241 190.327C236.459 190.327 235.019 188.887 235.019 187.105C235.019 182.06 232.924 177.23 229.518 173.824L224.177 168.483C220.779 165.085 215.952 162.982 210.896 162.982C209.119 162.982 207.674 161.536 207.674 159.76C207.674 157.983 209.12 156.538 210.897 156.538C210.9 156.538 210.902 156.538 210.905 156.538C217.638 156.538 223.97 159.162 228.735 163.926L234.075 169.267C238.841 174.033 241.465 180.368 241.463 187.105C241.463 188.882 240.017 190.327 238.241 190.327ZM251.914 159.76L249.635 157.481C248.377 156.222 246.336 156.222 245.077 157.481C243.819 158.739 243.819 160.78 245.077 162.038L247.356 164.317L242.413 169.261C241.307 167.647 240.046 166.122 238.633 164.709L233.292 159.368C231.878 157.955 230.354 156.693 228.74 155.588L242.799 141.53L256.471 155.202L251.914 159.76ZM272.422 139.251L270.144 141.53L267.865 139.251C266.607 137.993 264.566 137.993 263.307 139.251C262.049 140.51 262.049 142.55 263.307 143.809L265.586 146.087L261.028 150.645L247.356 136.973L258.75 125.578C260.007 124.322 262.051 124.322 263.307 125.578L272.422 134.693C273.682 135.953 273.682 137.991 272.422 139.251ZM281.537 121.021L274.701 127.857L270.144 123.3L276.98 116.463C278.237 115.207 280.281 115.207 281.537 116.463C282.797 117.723 282.797 119.761 281.537 121.021Z" fill="#FFC59E"/>
</g>
<path d="M32.9302 49.7974C32.9302 48.4497 33.1621 47.1387 33.626 45.8643C34.0947 44.585 34.7563 43.4448 35.6108 42.4438C36.4653 41.438 37.4883 40.6421 38.6797 40.0562C39.876 39.4702 41.1699 39.1772 42.5615 39.1772C44.1875 39.1772 45.6157 39.5215 46.8462 40.21C48.0767 40.8984 49.0801 41.7896 49.8564 42.8833C50.6377 43.9771 51.2163 45.1343 51.5923 46.355C51.9731 47.5708 52.1636 48.7183 52.1636 49.7974C52.1636 50.8618 51.9731 52.0044 51.5923 53.2251C51.2163 54.4458 50.6353 55.6055 49.8491 56.7041C49.0679 57.7979 48.0596 58.6914 46.8242 59.3848C45.5938 60.0732 44.1729 60.4175 42.5615 60.4175C41.165 60.4175 39.8735 60.1245 38.687 59.5386C37.5005 58.9526 36.4751 58.1543 35.6108 57.1436C34.7515 56.1279 34.0898 54.9854 33.626 53.7158C33.1621 52.4414 32.9302 51.1353 32.9302 49.7974ZM36.7095 49.7974C36.7095 51.9604 36.9951 53.7329 37.5664 55.1147C38.1377 56.4917 38.8677 57.4854 39.7563 58.0957C40.645 58.7061 41.5801 59.0112 42.5615 59.0112C43.5576 59.0112 44.4951 58.7085 45.374 58.103C46.2578 57.4927 46.978 56.4966 47.5347 55.1147C48.0962 53.7329 48.377 51.9604 48.377 49.7974C48.377 47.6685 48.0938 45.9131 47.5273 44.5312C46.9658 43.1494 46.2407 42.1484 45.3521 41.5283C44.4683 40.9033 43.5381 40.5908 42.5615 40.5908C41.4385 40.5908 40.4326 40.957 39.5439 41.6895C38.6553 42.4219 37.9595 43.4839 37.4565 44.8755C36.9585 46.2622 36.7095 47.9028 36.7095 49.7974ZM59.2168 52.1704H65.3032V48.5669C65.3032 48.1421 65.2275 47.8809 65.0762 47.7832C64.9248 47.6855 64.6514 47.6367 64.2559 47.6367H62.9668V46.3184H70.2544V47.6367H68.936C68.5356 47.6367 68.2598 47.688 68.1084 47.7905C67.957 47.8931 67.8813 48.1519 67.8813 48.5669V57.7515C67.8813 58.1616 67.957 58.4204 68.1084 58.5278C68.2646 58.6304 68.5405 58.6816 68.936 58.6816H70.2544V60H62.9302V58.6816H64.2559C64.6514 58.6816 64.9248 58.6304 65.0762 58.5278C65.2275 58.4253 65.3032 58.1665 65.3032 57.7515V53.4888H59.2168V57.7515C59.2168 58.1616 59.29 58.4204 59.4365 58.5278C59.5879 58.6304 59.8638 58.6816 60.2642 58.6816H61.5825V60H54.2656V58.6816H55.584C55.9795 58.6816 56.2529 58.6304 56.4043 58.5278C56.5557 58.4253 56.6313 58.1665 56.6313 57.7515V48.5669C56.6313 48.1519 56.5557 47.8931 56.4043 47.7905C56.2578 47.688 55.9844 47.6367 55.584 47.6367H54.2656V46.3184H61.5825V47.6367H60.2642C59.8638 47.6367 59.5879 47.688 59.4365 47.7905C59.29 47.8931 59.2168 48.1519 59.2168 48.5669V52.1704ZM72.6055 60V58.6816H73.9238C74.3193 58.6816 74.5928 58.6304 74.7441 58.5278C74.8955 58.4253 74.9712 58.1665 74.9712 57.7515V48.5669C74.9712 48.1519 74.8955 47.8931 74.7441 47.7905C74.5977 47.688 74.3242 47.6367 73.9238 47.6367H72.6055V46.3184H79.8931V47.6367H78.604C78.2036 47.6367 77.9277 47.688 77.7764 47.7905C77.6299 47.8931 77.5566 48.1519 77.5566 48.5669V52.229H78.5747C79.6489 52.229 80.418 52.1558 80.8818 52.0093C81.3457 51.8579 81.6826 51.582 81.8926 51.1816C82.1025 50.7812 82.3467 50.0415 82.625 48.9624C82.8447 48.064 83.1572 47.3291 83.5625 46.7578C83.9727 46.1865 84.6294 45.9009 85.5327 45.9009C86.2603 45.9009 86.8267 46.1133 87.2319 46.5381C87.6421 46.958 87.8472 47.4365 87.8472 47.9736C87.8472 48.3789 87.7275 48.7842 87.4883 49.1895C87.249 49.5947 86.8169 49.7974 86.1919 49.7974C85.7329 49.7974 85.3789 49.6362 85.1299 49.314C84.8809 48.9917 84.7563 48.6426 84.7563 48.2666C84.7563 48.2178 84.7661 48.1567 84.7856 48.0835C84.8052 48.0103 84.8149 47.9517 84.8149 47.9077C84.8149 47.7905 84.7539 47.7319 84.6318 47.7319C84.3926 47.7319 84.1729 48.1323 83.9727 48.9331C83.7578 49.8218 83.5625 50.5127 83.3867 51.0059C83.2158 51.4941 82.9985 51.8848 82.7349 52.1777C82.4761 52.4658 82.1196 52.6636 81.6655 52.771V52.8589C83.5991 53.0542 84.8979 54.3945 85.562 56.8799C85.8062 58.0615 86.1772 58.6523 86.6753 58.6523C86.9048 58.6523 87.1172 58.4888 87.3125 58.1616C87.5078 57.8345 87.6055 57.4463 87.6055 56.9971V56.4331H88.7114V57.0923C88.7114 57.7319 88.5283 58.4473 88.1621 59.2383C87.8008 60.0244 87.0537 60.4175 85.9209 60.4175C85.3008 60.4175 84.8149 60.2856 84.4634 60.022C84.1118 59.7583 83.8481 59.4165 83.6724 58.9966C83.5015 58.5767 83.3257 58.0029 83.145 57.2754C82.9644 56.543 82.8105 56.0107 82.6836 55.6787C82.3369 54.751 81.9268 54.1699 81.4531 53.9355C80.9795 53.6963 80.2495 53.5767 79.2632 53.5767H77.5566V57.7515C77.5566 58.1616 77.6299 58.4204 77.7764 58.5278C77.9277 58.6304 78.2036 58.6816 78.604 58.6816H79.9224V60H72.6055ZM91.0845 53.1592C91.0845 52.3291 91.2334 51.4868 91.5312 50.6323C91.8291 49.7729 92.2686 48.9844 92.8496 48.2666C93.4355 47.5488 94.1582 46.9751 95.0176 46.5454C95.877 46.1157 96.856 45.9009 97.9546 45.9009C99.3999 45.9009 100.643 46.2671 101.683 46.9995C102.728 47.7319 103.511 48.6597 104.034 49.7827C104.561 50.9058 104.825 52.0312 104.825 53.1592C104.825 54.2871 104.561 55.4126 104.034 56.5356C103.511 57.6587 102.728 58.5864 101.683 59.3188C100.643 60.0513 99.3999 60.4175 97.9546 60.4175C96.5288 60.4175 95.2935 60.0537 94.2485 59.3262C93.2036 58.5938 92.415 57.6636 91.8828 56.5356C91.3506 55.4077 91.0845 54.2822 91.0845 53.1592ZM94.2046 53.1592C94.2046 57.0996 95.4546 59.0698 97.9546 59.0698C98.6138 59.0698 99.2217 58.9038 99.7783 58.5718C100.335 58.2397 100.794 57.6318 101.155 56.748C101.521 55.8643 101.705 54.668 101.705 53.1592C101.705 51.0449 101.355 49.5312 100.657 48.6182C99.959 47.7051 99.0581 47.2485 97.9546 47.2485C96.8511 47.2485 95.9502 47.7051 95.252 48.6182C94.5537 49.5312 94.2046 51.0449 94.2046 53.1592ZM109.82 47.6367V46.3184H122.447V47.6367H121.128C120.728 47.6367 120.452 47.688 120.301 47.7905C120.154 47.8931 120.081 48.1519 120.081 48.5669V57.7515C120.081 58.1616 120.154 58.4204 120.301 58.5278C120.452 58.6304 120.728 58.6816 121.128 58.6816H122.447V60H115.13V58.6816H116.448C116.844 58.6816 117.117 58.6304 117.269 58.5278C117.42 58.4253 117.496 58.1665 117.496 57.7515V48.208C117.496 47.8271 117.107 47.6367 116.331 47.6367H115.188C114.568 47.6367 114.183 47.7759 114.031 48.0542C113.885 48.3325 113.79 48.7549 113.746 49.3213C113.682 50.3027 113.572 51.5234 113.416 52.9834C113.265 54.3652 113.067 55.5615 112.823 56.5723C112.583 57.583 112.134 58.4766 111.475 59.2529C110.821 60.0293 109.908 60.4175 108.736 60.4175C108.213 60.4175 107.703 60.249 107.205 59.9121C106.707 59.5703 106.458 59.0186 106.458 58.2568C106.458 57.6953 106.614 57.2607 106.927 56.9531C107.244 56.6455 107.618 56.4917 108.047 56.4917C108.462 56.4917 108.794 56.6211 109.043 56.8799C109.297 57.1387 109.424 57.4487 109.424 57.8101C109.424 57.8735 109.405 57.9834 109.366 58.1396C109.346 58.1982 109.336 58.2886 109.336 58.4106C109.336 58.689 109.488 58.8281 109.791 58.8281C110.484 58.8281 111.043 58.0493 111.468 56.4917C111.912 54.8511 112.183 52.7197 112.281 50.0977V49.3799C112.251 48.667 112.1 48.1982 111.827 47.9736C111.553 47.749 111.072 47.6367 110.384 47.6367H109.82ZM124.629 53.1592C124.629 52.3291 124.778 51.4868 125.076 50.6323C125.374 49.7729 125.813 48.9844 126.395 48.2666C126.98 47.5488 127.703 46.9751 128.562 46.5454C129.422 46.1157 130.401 45.9009 131.5 45.9009C132.945 45.9009 134.188 46.2671 135.228 46.9995C136.272 47.7319 137.056 48.6597 137.579 49.7827C138.106 50.9058 138.37 52.0312 138.37 53.1592C138.37 54.2871 138.106 55.4126 137.579 56.5356C137.056 57.6587 136.272 58.5864 135.228 59.3188C134.188 60.0513 132.945 60.4175 131.5 60.4175C130.074 60.4175 128.838 60.0537 127.793 59.3262C126.749 58.5938 125.96 57.6636 125.428 56.5356C124.896 55.4077 124.629 54.2822 124.629 53.1592ZM127.75 53.1592C127.75 57.0996 129 59.0698 131.5 59.0698C132.159 59.0698 132.767 58.9038 133.323 58.5718C133.88 58.2397 134.339 57.6318 134.7 56.748C135.066 55.8643 135.25 54.668 135.25 53.1592C135.25 51.0449 134.9 49.5312 134.202 48.6182C133.504 47.7051 132.603 47.2485 131.5 47.2485C130.396 47.2485 129.495 47.7051 128.797 48.6182C128.099 49.5312 127.75 51.0449 127.75 53.1592ZM152.696 52.229H151.524C151.368 50.8569 151.148 49.8462 150.865 49.1968C150.591 48.5571 150.225 48.1372 149.766 47.937C149.312 47.7368 148.738 47.6367 148.045 47.6367H146.573C146.114 47.6367 145.823 47.749 145.701 47.9736C145.584 48.1982 145.525 48.5059 145.525 48.8965V57.7515C145.525 58.1616 145.599 58.4204 145.745 58.5278C145.896 58.6304 146.172 58.6816 146.573 58.6816H147.891V60H140.574V58.6816H141.893C142.288 58.6816 142.562 58.6304 142.713 58.5278C142.864 58.4253 142.94 58.1665 142.94 57.7515V48.5669C142.94 48.1519 142.864 47.8931 142.713 47.7905C142.566 47.688 142.293 47.6367 141.893 47.6367H140.574V46.3184H152.696V52.229ZM159.646 56.1914L165.762 48.7207C166.001 48.4424 166.121 48.1812 166.121 47.937C166.023 47.7368 165.774 47.6367 165.374 47.6367H163.785V46.3184H171.102V47.6367H169.783C169.383 47.6367 169.107 47.688 168.956 47.7905C168.809 47.8931 168.736 48.1519 168.736 48.5669V57.7515C168.736 58.1616 168.809 58.4204 168.956 58.5278C169.107 58.6304 169.383 58.6816 169.783 58.6816H171.102V60H163.785V58.6816H165.103C165.499 58.6816 165.772 58.6304 165.923 58.5278C166.075 58.4253 166.15 58.1665 166.15 57.7515V50.127L159.976 57.5977C159.756 57.8711 159.646 58.0908 159.646 58.2568C159.646 58.54 159.966 58.6816 160.606 58.6816H161.983V60H154.695V58.6816H156.014C156.409 58.6816 156.683 58.6304 156.834 58.5278C156.985 58.4253 157.061 58.1665 157.061 57.7515V48.5669C157.061 48.1519 156.985 47.8931 156.834 47.7905C156.688 47.688 156.414 47.6367 156.014 47.6367H154.695V46.3184H162.012V47.6367H160.694C160.293 47.6367 160.018 47.688 159.866 47.7905C159.72 47.8931 159.646 48.1519 159.646 48.5669V56.1914ZM173.292 56.1035H174.463C174.571 57.7197 174.891 58.5278 175.423 58.5278C175.726 58.5278 175.955 58.3472 176.111 57.9858C176.268 57.6196 176.399 57.1606 176.507 56.6089C176.683 55.7544 176.983 55.0171 177.408 54.397C177.837 53.7769 178.636 53.4155 179.803 53.313V53.1006C178.606 53.0664 177.532 52.7856 176.58 52.2583C175.628 51.731 175.152 50.9717 175.152 49.9805C175.152 49.0088 175.611 48.1567 176.529 47.4243C177.447 46.687 178.938 46.3184 181.004 46.3184H188.951V47.6367H187.632C187.232 47.6367 186.956 47.688 186.805 47.7905C186.658 47.8931 186.585 48.1519 186.585 48.5669V57.7515C186.585 58.1616 186.658 58.4204 186.805 58.5278C186.956 58.6304 187.232 58.6816 187.632 58.6816H188.951V60H181.634V58.6816H182.952C183.348 58.6816 183.621 58.6304 183.772 58.5278C183.929 58.4253 184.007 58.1665 184.007 57.7515V53.7305H181.905C181.045 53.7305 180.425 54.0332 180.044 54.6387C179.668 55.2441 179.358 56.1401 179.114 57.3267C178.943 58.2446 178.677 58.9893 178.316 59.5605C177.955 60.1318 177.3 60.4175 176.353 60.4175C174.38 60.4175 173.36 58.9795 173.292 56.1035ZM184.007 52.3828V48.6328C184.007 48.2178 183.892 47.9395 183.663 47.7979C183.433 47.6514 183.077 47.5781 182.593 47.5781C182.398 47.5781 182.017 47.5977 181.451 47.6367C179.332 47.7783 178.272 48.5693 178.272 50.0098C178.272 50.5762 178.506 51.1133 178.975 51.6211C179.449 52.1289 180.264 52.3828 181.421 52.3828H184.007Z" fill="#59443F"/>
<mask id="path-5-outside-1_302_1803" maskUnits="userSpaceOnUse" x="30" y="185" width="73" height="22" fill="black">
<rect fill="white" x="30" y="185" width="73" height="22"/>
<path d="M41.62 201V199.64H35.98L38.76 196.5C39.3 195.88 40.02 195.06 40.58 194.28C41.38 193.14 41.64 192.32 41.64 191.42C41.64 189.12 39.88 187.44 37.52 187.44C35.86 187.44 34.92 188.16 34.36 188.8C33.84 189.4 33.42 190.22 33.36 191.56H34.84C34.86 190.88 35.02 190.38 35.28 189.98C35.78 189.22 36.56 188.8 37.5 188.8C39.08 188.8 40.16 189.9 40.16 191.4C40.16 191.94 40.02 192.58 39.42 193.44C39.1 193.92 38.2 194.98 37.86 195.38L33 201H41.62ZM49.345 187.34L44.805 193.64C43.805 195.04 43.705 196.2 43.705 196.7C43.705 198.8 45.185 201.24 48.325 201.24C50.985 201.24 52.905 199.32 52.905 196.66C52.905 194.18 51.145 192.26 48.585 192.26C48.165 192.26 47.785 192.32 47.405 192.44L50.465 188.18L49.345 187.34ZM48.305 199.88C46.445 199.88 45.185 198.48 45.185 196.7C45.185 194.96 46.465 193.62 48.285 193.62C50.105 193.62 51.425 194.92 51.425 196.7C51.425 198.5 50.145 199.88 48.305 199.88ZM60.0002 205.6H61.6002L67.7002 192.7H66.1002L63.4002 198.64L60.4602 192.7H58.8202L62.6402 200.22L60.0002 205.6ZM75.7194 193.3C75.3194 193.02 74.4594 192.5 73.1394 192.5C70.5794 192.5 68.6994 194.36 68.6994 196.9C68.6994 199.4 70.5594 201.24 73.1394 201.24C73.9194 201.24 74.8794 201.04 75.7794 200.38V198.66C75.0194 199.58 73.9594 199.96 73.0994 199.96C71.6194 199.96 70.1794 198.9 70.1794 196.88C70.1794 194.86 71.5794 193.78 73.1194 193.78C73.8594 193.78 74.9594 194.06 75.7194 195.02V193.3ZM84.2689 192.7H78.4289V197.76C78.4289 198.26 78.4089 198.78 78.1489 199.18C77.9889 199.44 77.6489 199.72 77.1089 199.72C77.0089 199.72 76.8889 199.7 76.7889 199.68V201C76.9289 201.02 77.0889 201.04 77.2289 201.04C78.3489 201.04 78.9689 200.48 79.2289 200.16C79.8689 199.38 79.8689 198.46 79.8689 197.76V194.02H82.8289V201H84.2689V192.7ZM86.9728 205.6H88.5728L94.6728 192.7H93.0728L90.3728 198.64L87.4328 192.7H85.7928L89.6128 200.22L86.9728 205.6ZM96.192 201H97.632V194.02H101.112V192.7H96.192V201Z"/>
</mask>
<path d="M41.62 201V199.64H35.98L38.76 196.5C39.3 195.88 40.02 195.06 40.58 194.28C41.38 193.14 41.64 192.32 41.64 191.42C41.64 189.12 39.88 187.44 37.52 187.44C35.86 187.44 34.92 188.16 34.36 188.8C33.84 189.4 33.42 190.22 33.36 191.56H34.84C34.86 190.88 35.02 190.38 35.28 189.98C35.78 189.22 36.56 188.8 37.5 188.8C39.08 188.8 40.16 189.9 40.16 191.4C40.16 191.94 40.02 192.58 39.42 193.44C39.1 193.92 38.2 194.98 37.86 195.38L33 201H41.62ZM49.345 187.34L44.805 193.64C43.805 195.04 43.705 196.2 43.705 196.7C43.705 198.8 45.185 201.24 48.325 201.24C50.985 201.24 52.905 199.32 52.905 196.66C52.905 194.18 51.145 192.26 48.585 192.26C48.165 192.26 47.785 192.32 47.405 192.44L50.465 188.18L49.345 187.34ZM48.305 199.88C46.445 199.88 45.185 198.48 45.185 196.7C45.185 194.96 46.465 193.62 48.285 193.62C50.105 193.62 51.425 194.92 51.425 196.7C51.425 198.5 50.145 199.88 48.305 199.88ZM60.0002 205.6H61.6002L67.7002 192.7H66.1002L63.4002 198.64L60.4602 192.7H58.8202L62.6402 200.22L60.0002 205.6ZM75.7194 193.3C75.3194 193.02 74.4594 192.5 73.1394 192.5C70.5794 192.5 68.6994 194.36 68.6994 196.9C68.6994 199.4 70.5594 201.24 73.1394 201.24C73.9194 201.24 74.8794 201.04 75.7794 200.38V198.66C75.0194 199.58 73.9594 199.96 73.0994 199.96C71.6194 199.96 70.1794 198.9 70.1794 196.88C70.1794 194.86 71.5794 193.78 73.1194 193.78C73.8594 193.78 74.9594 194.06 75.7194 195.02V193.3ZM84.2689 192.7H78.4289V197.76C78.4289 198.26 78.4089 198.78 78.1489 199.18C77.9889 199.44 77.6489 199.72 77.1089 199.72C77.0089 199.72 76.8889 199.7 76.7889 199.68V201C76.9289 201.02 77.0889 201.04 77.2289 201.04C78.3489 201.04 78.9689 200.48 79.2289 200.16C79.8689 199.38 79.8689 198.46 79.8689 197.76V194.02H82.8289V201H84.2689V192.7ZM86.9728 205.6H88.5728L94.6728 192.7H93.0728L90.3728 198.64L87.4328 192.7H85.7928L89.6128 200.22L86.9728 205.6ZM96.192 201H97.632V194.02H101.112V192.7H96.192V201Z" fill="#59443F"/>
<path d="M41.62 201V202H42.62V201H41.62ZM41.62 199.64H42.62V198.64H41.62V199.64ZM35.98 199.64L35.2313 198.977L33.759 200.64H35.98V199.64ZM38.76 196.5L39.5087 197.163L39.5141 197.157L38.76 196.5ZM40.58 194.28L41.3924 194.863L41.3986 194.854L40.58 194.28ZM34.36 188.8L33.6074 188.141L33.6043 188.145L34.36 188.8ZM33.36 191.56L32.361 191.515L32.3142 192.56H33.36V191.56ZM34.84 191.56V192.56H35.811L35.8396 191.589L34.84 191.56ZM35.28 189.98L34.4446 189.43L34.4416 189.435L35.28 189.98ZM39.42 193.44L38.5999 192.868L38.5938 192.876L38.5879 192.885L39.42 193.44ZM37.86 195.38L38.6164 196.034L38.6219 196.028L37.86 195.38ZM33 201L32.2436 200.346L30.8132 202H33V201ZM42.62 201V199.64H40.62V201H42.62ZM41.62 198.64H35.98V200.64H41.62V198.64ZM36.7287 200.303L39.5087 197.163L38.0113 195.837L35.2313 198.977L36.7287 200.303ZM39.5141 197.157C40.045 196.547 40.7993 195.689 41.3923 194.863L39.7677 193.697C39.2407 194.431 38.555 195.213 38.0059 195.843L39.5141 197.157ZM41.3986 194.854C42.2839 193.593 42.64 192.576 42.64 191.42H40.64C40.64 192.064 40.4761 192.687 39.7614 193.706L41.3986 194.854ZM42.64 191.42C42.64 188.532 40.396 186.44 37.52 186.44V188.44C39.364 188.44 40.64 189.708 40.64 191.42H42.64ZM37.52 186.44C35.511 186.44 34.3134 187.335 33.6074 188.141L35.1126 189.459C35.5266 188.985 36.209 188.44 37.52 188.44V186.44ZM33.6043 188.145C32.9351 188.917 32.431 189.953 32.361 191.515L34.359 191.605C34.409 190.487 34.7449 189.883 35.1157 189.455L33.6043 188.145ZM33.36 192.56H34.84V190.56H33.36V192.56ZM35.8396 191.589C35.8551 191.061 35.9744 190.747 36.1184 190.525L34.4416 189.435C34.0656 190.013 33.8649 190.699 33.8404 191.531L35.8396 191.589ZM36.1154 190.53C36.4267 190.056 36.8897 189.8 37.5 189.8V187.8C36.2303 187.8 35.1333 188.384 34.4446 189.43L36.1154 190.53ZM37.5 189.8C38.0517 189.8 38.456 189.988 38.7192 190.248C38.9827 190.509 39.16 190.896 39.16 191.4H41.16C41.16 190.404 40.7973 189.491 40.1258 188.827C39.454 188.162 38.5283 187.8 37.5 187.8V189.8ZM39.16 191.4C39.16 191.718 39.0931 192.161 38.5999 192.868L40.2401 194.012C40.9469 192.999 41.16 192.162 41.16 191.4H39.16ZM38.5879 192.885C38.3091 193.304 37.4602 194.306 37.0981 194.732L38.6219 196.028C38.9398 195.654 39.8909 194.536 40.2521 193.995L38.5879 192.885ZM37.1036 194.726L32.2436 200.346L33.7564 201.654L38.6164 196.034L37.1036 194.726ZM33 202H41.62V200H33V202ZM49.345 187.34L49.945 186.54L49.1296 185.928L48.5337 186.755L49.345 187.34ZM44.805 193.64L43.9937 193.055L43.9913 193.059L44.805 193.64ZM47.405 192.44L46.5928 191.857L44.8383 194.299L47.7061 193.394L47.405 192.44ZM50.465 188.18L51.2772 188.763L51.8487 187.968L51.065 187.38L50.465 188.18ZM48.5337 186.755L43.9937 193.055L45.6163 194.225L50.1563 187.925L48.5337 186.755ZM43.9913 193.059C42.8446 194.664 42.705 196.04 42.705 196.7H44.705C44.705 196.36 44.7654 195.416 45.6187 194.221L43.9913 193.059ZM42.705 196.7C42.705 197.97 43.149 199.345 44.0845 200.416C45.0396 201.508 46.4706 202.24 48.325 202.24V200.24C47.0394 200.24 46.1604 199.752 45.5905 199.099C45.001 198.425 44.705 197.53 44.705 196.7H42.705ZM48.325 202.24C51.5373 202.24 53.905 199.872 53.905 196.66H51.905C51.905 198.768 50.4327 200.24 48.325 200.24V202.24ZM53.905 196.66C53.905 193.665 51.7334 191.26 48.585 191.26V193.26C50.5566 193.26 51.905 194.695 51.905 196.66H53.905ZM48.585 191.26C48.0632 191.26 47.5817 191.336 47.1039 191.486L47.7061 193.394C47.9883 193.304 48.2668 193.26 48.585 193.26V191.26ZM48.2172 193.023L51.2772 188.763L49.6528 187.597L46.5928 191.857L48.2172 193.023ZM51.065 187.38L49.945 186.54L48.745 188.14L49.865 188.98L51.065 187.38ZM48.305 198.88C47.0389 198.88 46.185 197.97 46.185 196.7H44.185C44.185 198.99 45.8511 200.88 48.305 200.88V198.88ZM46.185 196.7C46.185 195.504 47.0258 194.62 48.285 194.62V192.62C45.9042 192.62 44.185 194.416 44.185 196.7H46.185ZM48.285 194.62C49.5699 194.62 50.425 195.489 50.425 196.7H52.425C52.425 194.351 50.6401 192.62 48.285 192.62V194.62ZM50.425 196.7C50.425 197.982 49.5593 198.88 48.305 198.88V200.88C50.7306 200.88 52.425 199.018 52.425 196.7H50.425ZM60.0002 205.6L59.1024 205.159L58.3955 206.6H60.0002V205.6ZM61.6002 205.6V206.6H62.2335L62.5042 206.027L61.6002 205.6ZM67.7002 192.7L68.6042 193.127L69.2792 191.7H67.7002V192.7ZM66.1002 192.7V191.7H65.4562L65.1898 192.286L66.1002 192.7ZM63.4002 198.64L62.5039 199.084L63.4386 200.972L64.3105 199.054L63.4002 198.64ZM60.4602 192.7L61.3564 192.256L61.081 191.7H60.4602V192.7ZM58.8202 192.7V191.7H57.1906L57.9286 193.153L58.8202 192.7ZM62.6402 200.22L63.5379 200.661L63.7579 200.212L63.5317 199.767L62.6402 200.22ZM60.0002 206.6H61.6002V204.6H60.0002V206.6ZM62.5042 206.027L68.6042 193.127L66.7961 192.273L60.6961 205.173L62.5042 206.027ZM67.7002 191.7H66.1002V193.7H67.7002V191.7ZM65.1898 192.286L62.4898 198.226L64.3105 199.054L67.0105 193.114L65.1898 192.286ZM64.2964 198.196L61.3564 192.256L59.5639 193.144L62.5039 199.084L64.2964 198.196ZM60.4602 191.7H58.8202V193.7H60.4602V191.7ZM57.9286 193.153L61.7486 200.673L63.5317 199.767L59.7117 192.247L57.9286 193.153ZM61.7424 199.779L59.1024 205.159L60.8979 206.041L63.5379 200.661L61.7424 199.779ZM75.7194 193.3H76.7194V192.779L76.2928 192.481L75.7194 193.3ZM75.7794 200.38L76.3707 201.186L76.7794 200.887V200.38H75.7794ZM75.7794 198.66H76.7794V195.879L75.0084 198.023L75.7794 198.66ZM75.7194 195.02L74.9353 195.641L76.7194 197.894V195.02H75.7194ZM76.2928 192.481C75.8014 192.137 74.7416 191.5 73.1394 191.5V193.5C74.1772 193.5 74.8374 193.903 75.1459 194.119L76.2928 192.481ZM73.1394 191.5C70.0361 191.5 67.6994 193.799 67.6994 196.9H69.6994C69.6994 194.921 71.1226 193.5 73.1394 193.5V191.5ZM67.6994 196.9C67.6994 199.97 70.0253 202.24 73.1394 202.24V200.24C71.0934 200.24 69.6994 198.83 69.6994 196.9H67.6994ZM73.1394 202.24C74.088 202.24 75.2668 201.996 76.3707 201.186L75.188 199.574C74.4919 200.084 73.7507 200.24 73.1394 200.24V202.24ZM76.7794 200.38V198.66H74.7794V200.38H76.7794ZM75.0084 198.023C74.4549 198.693 73.6881 198.96 73.0994 198.96V200.96C74.2306 200.96 75.5838 200.467 76.5503 199.297L75.0084 198.023ZM73.0994 198.96C72.5934 198.96 72.1166 198.779 71.7729 198.452C71.4418 198.138 71.1794 197.637 71.1794 196.88H69.1794C69.1794 198.143 69.637 199.182 70.3958 199.903C71.1422 200.611 72.1254 200.96 73.0994 200.96V198.96ZM71.1794 196.88C71.1794 196.114 71.4381 195.608 71.7656 195.293C72.103 194.968 72.5808 194.78 73.1194 194.78V192.78C72.1179 192.78 71.1258 193.132 70.3782 193.852C69.6206 194.582 69.1794 195.626 69.1794 196.88H71.1794ZM73.1194 194.78C73.6494 194.78 74.4173 194.986 74.9353 195.641L76.5034 194.399C75.5014 193.134 74.0693 192.78 73.1194 192.78V194.78ZM76.7194 195.02V193.3H74.7194V195.02H76.7194ZM84.2689 192.7H85.2689V191.7H84.2689V192.7ZM78.4289 192.7V191.7H77.4289V192.7H78.4289ZM78.1489 199.18L77.3105 198.635L77.3037 198.645L77.2972 198.656L78.1489 199.18ZM76.7889 199.68L76.985 198.699L75.7889 198.46V199.68H76.7889ZM76.7889 201H75.7889V201.867L76.6475 201.99L76.7889 201ZM79.2289 200.16L78.4558 199.526L78.4528 199.529L79.2289 200.16ZM79.8689 194.02V193.02H78.8689V194.02H79.8689ZM82.8289 194.02H83.8289V193.02H82.8289V194.02ZM82.8289 201H81.8289V202H82.8289V201ZM84.2689 201V202H85.2689V201H84.2689ZM84.2689 191.7H78.4289V193.7H84.2689V191.7ZM77.4289 192.7V197.76H79.4289V192.7H77.4289ZM77.4289 197.76C77.4289 198.296 77.3864 198.518 77.3105 198.635L78.9874 199.725C79.4314 199.042 79.4289 198.224 79.4289 197.76H77.4289ZM77.2972 198.656C77.2976 198.655 77.2947 198.66 77.2877 198.667C77.2811 198.674 77.2722 198.681 77.2606 198.688C77.2425 198.699 77.199 198.72 77.1089 198.72V200.72C78.0358 200.72 78.6803 200.224 79.0006 199.704L77.2972 198.656ZM77.1089 198.72C77.1203 198.72 77.1138 198.721 77.084 198.717C77.0569 198.713 77.0238 198.707 76.985 198.699L76.5928 200.661C76.7 200.682 76.9029 200.72 77.1089 200.72V198.72ZM75.7889 199.68V201H77.7889V199.68H75.7889ZM76.6475 201.99C76.7887 202.01 77.011 202.04 77.2289 202.04V200.04C77.1669 200.04 77.0692 200.03 76.9303 200.01L76.6475 201.99ZM77.2289 202.04C78.7308 202.04 79.6127 201.273 80.005 200.791L78.4528 199.529C78.3251 199.687 77.967 200.04 77.2289 200.04V202.04ZM80.002 200.794C80.8963 199.704 80.8689 198.429 80.8689 197.76H78.8689C78.8689 198.491 78.8415 199.056 78.4558 199.526L80.002 200.794ZM80.8689 197.76V194.02H78.8689V197.76H80.8689ZM79.8689 195.02H82.8289V193.02H79.8689V195.02ZM81.8289 194.02V201H83.8289V194.02H81.8289ZM82.8289 202H84.2689V200H82.8289V202ZM85.2689 201V192.7H83.2689V201H85.2689ZM86.9728 205.6L86.0751 205.159L85.3682 206.6H86.9728V205.6ZM88.5728 205.6V206.6H89.2061L89.4768 206.027L88.5728 205.6ZM94.6728 192.7L95.5768 193.127L96.2518 191.7H94.6728V192.7ZM93.0728 192.7V191.7H92.4289L92.1624 192.286L93.0728 192.7ZM90.3728 198.64L89.4766 199.084L90.4113 200.972L91.2832 199.054L90.3728 198.64ZM87.4328 192.7L88.329 192.256L88.0536 191.7H87.4328V192.7ZM85.7928 192.7V191.7H84.1632L84.9012 193.153L85.7928 192.7ZM89.6128 200.22L90.5106 200.661L90.7305 200.212L90.5044 199.767L89.6128 200.22ZM86.9728 206.6H88.5728V204.6H86.9728V206.6ZM89.4768 206.027L95.5768 193.127L93.7688 192.273L87.6688 205.173L89.4768 206.027ZM94.6728 191.7H93.0728V193.7H94.6728V191.7ZM92.1624 192.286L89.4624 198.226L91.2832 199.054L93.9832 193.114L92.1624 192.286ZM91.269 198.196L88.329 192.256L86.5366 193.144L89.4766 199.084L91.269 198.196ZM87.4328 191.7H85.7928V193.7H87.4328V191.7ZM84.9012 193.153L88.7212 200.673L90.5044 199.767L86.6844 192.247L84.9012 193.153ZM88.7151 199.779L86.0751 205.159L87.8706 206.041L90.5106 200.661L88.7151 199.779ZM96.192 201H95.192V202H96.192V201ZM97.632 201V202H98.632V201H97.632ZM97.632 194.02V193.02H96.632V194.02H97.632ZM101.112 194.02V195.02H102.112V194.02H101.112ZM101.112 192.7H102.112V191.7H101.112V192.7ZM96.192 192.7V191.7H95.192V192.7H96.192ZM96.192 202H97.632V200H96.192V202ZM98.632 201V194.02H96.632V201H98.632ZM97.632 195.02H101.112V193.02H97.632V195.02ZM102.112 194.02V192.7H100.112V194.02H102.112ZM101.112 191.7H96.192V193.7H101.112V191.7ZM95.192 192.7V201H97.192V192.7H95.192Z" fill="black" mask="url(#path-5-outside-1_302_1803)"/>
<defs>
<filter id="filter0_d_302_1803" x="0" y="0" width="340" height="240" filterUnits="userSpaceOnUse" color-interpolation-filters="sRGB">
<feFlood flood-opacity="0" result="BackgroundImageFix"/>
<feColorMatrix in="SourceAlpha" type="matrix" values="0 0 0 0 0 0 0 0 0 0 0 0 0 0 0 0 0 0 127 0" result="hardAlpha"/>
<feOffset dx="2" dy="2"/>
<feGaussianBlur stdDeviation="5"/>
<feColorMatrix type="matrix" values="0 0 0 0 0 0 0 0 0 0 0 0 0 0 0 0 0 0 0.1 0"/>
<feBlend mode="normal" in2="BackgroundImageFix" result="effect1_dropShadow_302_1803"/>
<feBlend mode="normal" in="SourceGraphic" in2="effect1_dropShadow_302_1803" result="shape"/>
</filter>
</defs>
</svg>
